# xmcd CD database file
#
# Track frame offsets:
#	150
#	17700
#	37369
#	59336
#	76453
#	92609
#	118238
#	137613
#	158189
#	169422
#	184525
#	206142
#
# Disc length: 2984 seconds
#
# Revision: 0
# Processed by: cddbd v1.5.1PL2 Copyright (c) Steve Scherf et al.
# Submitted via: CDex 1.51
#
DISCID=a90ba60c
DTITLE=ＹＵＫＩ - ＪＯＹ
DYEAR=1900
DGENRE=JPop
TTITLE0=舞い上がれ
TTITLE1=JOY
TTITLE2=ハローグッバイ
TTITLE3=Walking on the skyline
TTITLE4=スウィートセブンティーン
TTITLE5=サイダー
TTITLE6=AIR WAVE
TTITLE7=WAGON
TTITLE8=ブレーキはノー
TTITLE9=キスをしようよ
TTITLE10=ティンカーベル
TTITLE11=愛し合えば
EXTD=
EXTT0=
EXTT1=
EXTT2=
EXTT3=
EXTT4=
EXTT5=
EXTT6=
EXTT7=
EXTT8=
EXTT9=
EXTT10=
EXTT11=
PLAYORDER=
